# xmcd
#
# Track frame offsets:
#	150
#	22851
#	46475
#	70090
#	90178
#	115582
#	138235
#	160989
#	186429
#	210248
#	232045
#	251404
#	273492
#	296181
#
# Disc length: 4211 seconds
# Revision: 0
# Processed by: cddbd v1.5.2PL0 Copyright (c) Steve Scherf et al.
# Submitted via: dBpowerAMP V12.0
#
DISCID=be10710e
DTITLE=Harmonik - Let's Go
DYEAR=2011
DGENRE=World
TTITLE0=Harmonik Time
TTITLE1=More Than Enough
TTITLE2=Brase Lide
TTITLE3=Bo Kote M
TTITLE4=SMS
TTITLE5=Angelique
TTITLE6=Pa Mode
TTITLE7=All The Way
TTITLE8=Fe Sa Yo Vle
TTITLE9=Lets Go
TTITLE10=I Heart You
TTITLE11=Sim Te Gen
TTITLE12=Yon Sèl Bondye
TTITLE13=I Believe In Love
EXTD=
EXTT0=
EXTT1=
EXTT2=
EXTT3=
EXTT4=
EXTT5=
EXTT6=
EXTT7=
EXTT8=
EXTT9=
EXTT10=
EXTT11=
EXTT12=
EXTT13=
PLAYORDER=
